<?xml version="1.0" encoding="UTF-8" standalone="no"?>
<!DOCTYPE svg PUBLIC "-//W3C//DTD SVG 1.1//EN" "http://www.w3.org/Graphics/SVG/1.1/DTD/svg11.dtd">
<!-- Created with Vectornator (http://vectornator.io/) -->
<svg height="100%" stroke-miterlimit="10" style="fill-rule:nonzero;clip-rule:evenodd;stroke-linecap:round;stroke-linejoin:round;" version="1.1" viewBox="0 0 500 500" width="100%" xml:space="preserve" xmlns="http://www.w3.org/2000/svg" xmlns:vectornator="http://vectornator.io" xmlns:xlink="http://www.w3.org/1999/xlink">
<defs/>
<g id="Layer_1_Copy" vectornator:layerName="Layer_1_Copy">
<g opacity="1">
<path d="M242.844 24.7188C242.56 24.7238 242.34 24.9065 242.344 25.125C243.542 32.9021 244.903 40.6892 247 48.2812C247.604 50.4688 248.288 52.6477 249.062 54.7812C249.689 56.5066 250.368 58.2009 250.875 59.9688C252.304 64.9484 252.826 70.1753 252.812 75.3438C252.794 82.5294 251.96 89.8045 250.375 96.8125C249.275 101.677 247.468 106.348 246.812 111.312C245.827 118.772 246.643 126.381 248.438 133.656C249.964 139.846 252.147 145.824 254.781 151.625C256.047 154.413 257.349 157.253 258.938 159.875C261.341 163.843 264.265 167.473 266.812 171.344C269.834 175.935 272.426 180.821 274.438 185.938C276.482 191.136 277.813 196.575 278.969 202.031C266.71 202.812 254.488 203.984 242.281 205.344C220.849 207.732 199.36 210.32 178.156 214.312C166.958 216.421 155.664 218.837 144.938 222.75C139.064 224.892 132.996 227.551 128.375 231.875C126.423 233.701 124.708 235.806 123.188 238C114.905 249.956 114.048 264.654 115.469 278.688C115.987 283.804 116.746 288.894 117.75 293.938C119.085 300.643 120.911 307.252 123.219 313.688C125.586 320.288 128.494 326.731 131.562 333.031C134.408 338.872 137.492 344.59 140.844 350.156C143.826 355.108 146.986 359.901 150.656 364.375C157.184 372.332 164.951 379.274 173.406 385.125C185.408 393.431 198.91 399.627 213.219 402.656C222.176 404.553 231.416 405.188 240.531 404.219C247.664 403.461 254.708 401.742 261.375 399.094C265.928 397.286 270.268 394.919 274.312 392.156C278.368 389.385 282.12 386.189 285.562 382.688C290.325 377.845 294.577 372.45 298.125 366.656C306.703 352.649 311.488 336.567 314.656 320.562C315.735 315.111 316.57 309.619 317.156 304.094C318.702 289.535 318.581 274.825 317.312 260.25C316.392 249.679 314.788 239.172 313.156 228.688C317.568 228.713 321.959 228.858 326.344 229.312C331.433 229.84 336.422 230.778 341.312 232.281C343.959 233.095 346.556 234.03 348.969 235.406C349.777 235.867 350.512 236.418 351.281 236.938C352.204 237.561 353.236 238.027 354.094 238.75C356.395 240.687 358.534 242.843 360.594 245.031C364.261 248.929 367.711 253.353 369.75 258.344C370.71 260.694 371.341 263.204 371.844 265.688C373.482 273.777 372.936 282.375 369.281 289.875C367.394 293.747 364.523 297.082 361.75 300.344C358.751 303.871 355.541 307.218 351.875 310.062C347.521 313.441 342.611 316.008 337.688 318.438C335.427 319.553 333.205 320.716 330.906 321.75C327.958 323.076 324.905 324.221 321.844 325.25C321.457 325.461 321.351 326.03 321.625 326.531C321.899 327.033 322.457 327.273 322.844 327.062C326.257 326.498 329.653 325.82 333 324.938C335.584 324.256 338.129 323.426 340.688 322.656C346.514 320.903 352.32 318.973 357.719 316.125C362.734 313.479 367.372 310.206 371.781 306.656C375.384 303.756 378.991 300.795 381.844 297.125C389.103 287.786 391.998 275.73 391.469 264.062C391.324 260.877 390.992 257.732 390.25 254.625C388.709 248.172 385.836 242.115 382.562 236.375C379.431 230.885 375.914 225.408 371.406 220.938C367.96 217.52 363.724 214.755 359.5 212.406C345.184 204.445 328.654 201.826 312.469 201.25C310.999 201.198 309.533 201.243 308.062 201.219C306.428 193.984 304.498 186.809 301.562 179.969C298.946 173.872 295.74 168.052 292.062 162.531C290.502 160.188 288.817 157.95 287.188 155.656C285.978 153.954 284.892 152.152 283.656 150.469C282.426 148.793 281.185 147.136 280.031 145.406C276.362 139.905 272.946 133.884 270.531 127.719C268.781 123.249 267.593 118.501 267.406 113.688C267.332 111.772 267.485 109.907 267.625 108C267.793 105.722 267.868 103.441 267.875 101.156C267.899 92.9287 267.051 84.5806 265.344 76.5312C264.201 71.1445 262.601 65.7576 260.219 60.7812C258.045 56.2398 255.144 52.1225 252.875 47.625C249.206 40.3537 246.214 32.7508 243.375 25.125C243.371 24.9065 243.128 24.7137 242.844 24.7188ZM283.594 230C285.07 240.706 286.365 251.459 286.781 262.25C287.156 271.969 286.796 281.749 285.625 291.406C284.936 297.092 283.957 302.728 282.688 308.312C281.743 312.468 280.62 316.581 279.375 320.656C275.413 333.628 269.795 346.166 260.781 356.438C256.122 361.747 250.597 366.442 244.156 369.438C241.583 370.635 238.875 371.58 236.125 372.281C232.901 373.103 229.608 373.575 226.281 373.656C221.147 373.782 216.012 372.943 211.094 371.5C203.586 369.298 196.639 365.505 190.406 360.812C186.293 357.716 182.497 354.195 179.219 350.219C176.761 347.237 174.654 343.989 172.656 340.688C169.836 336.029 167.253 331.258 164.844 326.375C162.271 321.16 159.79 315.868 157.781 310.406C155.486 304.167 153.792 297.692 152.594 291.156C151.967 287.734 151.47 284.302 151.094 280.844C150.446 274.887 150.264 268.783 151.938 262.969C152.699 260.325 153.884 257.811 155.562 255.625C155.953 255.116 156.376 254.568 156.875 254.156C158.351 252.938 160.199 252.103 161.938 251.344C164.895 250.053 167.95 249.014 171.031 248.062C181.383 244.865 192.046 242.665 202.688 240.688C213.964 238.592 225.296 236.86 236.656 235.281C249.317 233.522 261.993 231.967 274.719 230.75C277.67 230.468 280.638 230.24 283.594 230Z" fill="#000000" stroke="none"/>
</g>
<g opacity="1">
<path d="M204.531 61.4062C204.161 61.5618 203.969 62.0043 204.125 62.375C204.471 63.7093 204.915 64.9975 205.219 66.3438C205.666 68.3294 205.869 70.3438 205.969 72.375C206.173 76.5159 206.016 80.7189 205.344 84.8125C205.187 85.7684 204.942 86.6994 204.656 87.625C204.607 87.7853 204.566 87.9707 204.5 88.125C204.486 88.1579 204.532 88.0162 204.5 88C204.419 87.9591 204.442 88.1668 204.406 88.25C204.293 88.5136 204.174 88.7979 204.062 89.0625C203.84 89.5931 203.601 90.0955 203.375 90.625C202.748 92.0955 202.126 93.5607 201.5 95.0312C200.386 97.6467 199.262 100.287 198.156 102.906C197.233 105.095 196.275 107.305 195.625 109.594C194.819 112.432 194.458 115.369 194.031 118.281C193.599 121.235 193.048 124.196 192.938 127.188C192.742 132.452 193.628 137.822 194.781 142.938C195.33 145.371 195.99 147.81 196.844 150.156C197.7 152.508 198.796 154.779 199.875 157.031C200.656 158.662 201.475 160.264 202.406 161.812C204.129 164.679 205.964 167.485 207.75 170.312C207.986 170.687 208.233 171.063 208.469 171.438C208.767 171.911 209.388 172.858 209.5 173.156C210.276 175.219 211.093 177.228 211.656 179.375C211.851 180.116 212.09 180.889 212.156 181.656C212.243 182.661 212.246 183.68 212.219 184.688C212.21 185.007 212.186 185.307 212.156 185.625C212.175 185.499 212.199 185.371 212.219 185.25C210.815 190.592 214.002 196.065 219.344 197.469C224.685 198.872 230.159 195.685 231.562 190.344C232.169 187.65 232.083 184.889 231.812 182.156C231.392 177.905 230.137 173.934 228.5 170C227.601 167.839 226.588 165.705 225.344 163.719C222.684 159.472 219.159 155.811 216.5 151.562C214.317 148.075 212.292 144.44 211.062 140.5C209.788 136.416 208.54 131.954 208.562 127.625C208.57 126.115 208.834 124.58 209.062 123.094C209.605 119.567 210.533 116.125 211.188 112.625C211.997 108.298 212.38 103.868 212.906 99.5C213.176 97.2608 213.416 95.0238 213.656 92.7812C213.774 91.684 213.951 90.5714 214 89.4688C214.144 86.2639 213.534 82.9486 212.844 79.8438C211.868 75.451 210.576 71.0087 208.562 66.9688C207.662 65.162 206.518 63.5291 205.469 61.8125C205.313 61.4418 204.902 61.2507 204.531 61.4062Z" fill="#000000" stroke="none"/>
</g>
<g opacity="1">
<path d="M162.656 99.25C162.188 100.62 160.925 101.719 159.969 102.75C158.739 104.076 157.499 105.381 156.25 106.688C155.51 107.461 154.713 108.211 154.062 109.062C151.86 111.946 150.239 115.334 148.688 118.594C145.243 125.833 142.522 134.005 144.75 142.062C145.337 144.187 146.186 146.223 146.969 148.281C149.117 153.932 151.608 159.443 154.125 164.938C155.58 168.114 156.845 171.26 157.812 174.625C158.5 177.015 158.955 179.236 158.938 181.719C158.916 184.836 158.605 187.979 158.156 191.062C158.094 191.488 158.039 191.888 157.969 192.312C157.938 192.502 157.737 193.729 157.594 193.781C156.411 199.176 159.824 204.505 165.219 205.688C170.614 206.87 175.943 203.457 177.125 198.062C177.783 194.297 177.565 190.32 177.344 186.531C177.14 183.034 176.815 179.503 175.969 176.094C175.354 173.617 174.367 171.206 173.344 168.875C172.339 166.586 171.245 164.342 170.031 162.156C168.967 160.24 167.768 158.401 166.625 156.531C164.636 153.277 162.657 150.015 160.906 146.625C159.671 144.233 158.541 141.835 157.875 139.219C157.434 137.484 157.189 135.693 156.844 133.938C156.536 132.374 156.17 130.78 156.031 129.188C155.79 126.413 156.098 123.54 156.375 120.781C156.68 117.737 157.026 114.653 157.812 111.688C158.148 110.424 158.783 109.253 159.312 108.062C160.057 106.389 160.789 104.719 161.5 103.031C161.997 101.851 162.675 100.561 162.656 99.25Z" fill="#000000" stroke="none"/>
</g>
<g opacity="1">
<path d="M381.625 341.812C377.977 341.688 374.3 341.682 370.656 341.906C359.102 342.616 347.621 344.643 336.594 348.188C332.687 349.443 328.726 350.733 325 352.469C324.3 352.726 323.93 353.487 324.188 354.188C324.445 354.888 325.237 355.257 325.938 355C330.116 353.87 334.468 353.264 338.75 352.688C346.734 351.612 354.784 351.529 362.812 352.094C368.589 352.5 374.253 353.321 379.875 354.719C384.331 355.826 389.351 357.004 392.938 360.062C393.774 360.776 394.488 361.502 395.062 362.438C395.153 362.584 395.383 362.895 395.375 363.094C395.37 363.208 395.022 362.78 394.969 362.938C394.87 363.229 394.889 363.538 394.781 363.844C394.748 363.939 394.699 364.099 394.562 364.094C394.535 364.093 394.511 364.037 394.5 364.062C394.184 364.797 394.05 365.607 393.719 366.344C393.073 367.779 392.186 369.053 391.25 370.312C388.898 373.479 386.136 376.261 383.219 378.906C379.718 382.081 375.978 384.954 372.125 387.688C358.176 397.582 342.709 404.829 327.031 411.5C320.268 414.378 313.419 417.04 306.562 419.688C298.38 422.847 290.198 425.858 281.812 428.438C266.641 433.105 251.178 436.743 235.656 440.031C223.256 442.659 210.787 444.985 198.188 446.438C181.315 448.382 164.274 448.833 147.344 447.406C141.271 446.895 135.186 446.029 129.312 444.375C127.183 443.776 125.172 442.949 123.125 442.125C121.632 441.524 120.098 441.032 118.625 440.375C115.904 439.161 113.155 437.627 110.781 435.875C110.335 435.546 110.01 435.021 109.562 434.719C109.498 434.675 109.603 434.966 109.531 434.938C109.48 434.917 109.441 434.856 109.406 434.812C108.962 434.251 108.739 433.507 108.5 432.844C108.202 432.015 107.907 431.089 107.812 430.219C107.709 429.261 108.287 427.554 108.594 426.719C109.112 425.309 109.875 424.019 110.719 422.781C111.975 420.938 113.471 419.308 115.062 417.75C120.484 412.443 126.849 407.895 133.719 404.656C137.503 402.872 141.503 401.475 145.438 400.062C146.265 399.867 146.789 399.046 146.594 398.219C146.399 397.391 145.578 396.867 144.75 397.062C140.454 397.579 136.107 398.078 131.875 399C125.362 400.418 119.12 402.825 113.188 405.844C108.826 408.063 104.6 410.633 100.969 413.938C97.2738 417.3 94.1431 421.466 92.5625 426.25C91.3524 429.913 91.3 433.901 91.8438 437.688C92.0506 439.128 92.3567 440.564 92.8438 441.938C93.6812 444.299 95.0048 446.583 96.5312 448.562C99.33 452.192 102.659 455.396 106.312 458.156C108.53 459.831 110.875 461.495 113.344 462.781C115.98 464.155 118.836 465.201 121.656 466.125C127.623 468.079 133.849 469.055 140.062 469.844C148.896 470.965 157.853 471.352 166.75 471.531C173.004 471.657 179.285 471.46 185.531 471.156C204.626 470.229 223.505 467.515 242.25 463.812C254.628 461.368 266.963 458.686 279.125 455.312C286.698 453.212 294.222 450.924 301.625 448.281C308.122 445.962 314.539 443.337 320.906 440.688C334.62 434.981 348.099 428.573 360.906 421.031C366.416 417.787 371.763 414.245 377.031 410.625C384.755 405.318 392.112 399.562 398.906 393.094C403.414 388.802 407.753 384.055 410.875 378.625C412.487 375.822 413.683 372.791 414.469 369.656C414.735 368.594 414.973 367.499 415.062 366.406C415.229 364.363 414.979 362.266 414.5 360.281C413.864 357.648 412.733 355.024 411.156 352.812C407.113 347.141 400.008 344.31 393.438 342.938C389.556 342.127 385.577 341.947 381.625 341.812Z" fill="#000000" stroke="none"/>
</g>
</g>
</svg>
